<?xml version="1.0" standalone="no"?>
<!DOCTYPE svg PUBLIC "-//W3C//DTD SVG 20010904//EN"
 "http://www.w3.org/TR/2001/REC-SVG-20010904/DTD/svg10.dtd">
<svg version="1.0" xmlns="http://www.w3.org/2000/svg"
 width="280.000000pt" height="280.000000pt" viewBox="0 0 280.000000 280.000000"
 preserveAspectRatio="xMidYMid meet">

<g transform="translate(0.000000,280.000000) scale(0.100000,-0.100000)"
fill="#000000" stroke="none">
<path d="M1636 2695 c7 -18 -4 -19 -43 -5 -24 9 -26 8 -11 -3 9 -7 20 -25 23
-40 8 -29 25 -47 25 -26 0 10 3 11 13 1 6 -7 12 -18 12 -25 0 -7 6 -12 13 -12
8 0 20 -9 29 -20 14 -19 15 -19 11 0 -2 10 8 30 21 43 l25 25 -23 18 c-23 19
-41 17 -41 -3 0 -5 7 -8 15 -5 23 9 29 -12 9 -34 -20 -22 -47 -9 -37 18 4 11
2 14 -5 9 -16 -9 -34 28 -20 42 5 5 7 15 4 21 -11 17 -26 13 -20 -4z"/>
<path d="M1466 2669 c-12 -14 -25 -20 -42 -16 -26 5 -33 -10 -10 -19 19 -7 53
11 66 36 14 26 9 25 -14 -1z"/>
<path d="M1129 2663 c-13 -16 -12 -17 4 -4 9 7 17 15 17 17 0 8 -8 3 -21 -13z"/>
<path d="M1166 2655 c-11 -8 -15 -15 -9 -15 7 0 15 5 18 10 4 6 11 8 16 5 5
-4 9 -1 9 4 0 15 -11 13 -34 -4z"/>
<path d="M1514 2648 c3 -15 26 -23 26 -8 0 6 -4 9 -9 6 -5 -4 -12 -1 -14 4 -3
6 -4 5 -3 -2z"/>
<path d="M930 2640 c0 -5 5 -10 10 -10 6 0 10 5 10 10 0 6 -4 10 -10 10 -5 0
-10 -4 -10 -10z"/>
<path d="M1810 2636 c0 -18 27 -39 40 -31 6 4 19 1 28 -7 15 -12 16 -11 3 5
-8 10 -27 25 -43 33 -24 12 -28 12 -28 0z"/>
<path d="M1000 2627 c19 -8 42 -27 52 -43 10 -16 18 -24 18 -17 0 22 -45 62
-75 68 -28 5 -28 4 5 -8z"/>
<path d="M1099 2613 c-5 -14 -8 -30 -6 -36 1 -5 8 7 14 27 13 42 7 49 -8 9z"/>
<path d="M1178 2620 c25 -11 30 -38 6 -36 -9 0 -19 -5 -21 -11 -3 -8 4 -13 15
-13 25 0 38 35 22 55 -7 8 -20 15 -29 14 -11 0 -9 -3 7 -9z"/>
<path d="M1360 2611 c0 -5 5 -13 10 -16 6 -3 10 -2 10 4 0 5 -4 13 -10 16 -5
3 -10 2 -10 -4z"/>
<path d="M1577 2598 c-10 -27 15 -50 48 -44 17 2 36 5 43 5 6 1 12 5 12 10 0
4 -18 6 -40 4 -34 -3 -41 -1 -48 18 -7 18 -10 19 -15 7z"/>
<path d="M1950 2594 c0 -8 5 -12 10 -9 6 4 8 11 5 16 -9 14 -15 11 -15 -7z"/>
<path d="M826 2586 c-23 -11 -25 -14 -11 -19 9 -4 26 -7 38 -6 12 0 16 3 9 6
-10 4 -9 8 5 19 24 18 0 18 -41 0z"/>
<path d="M1730 2591 c0 -5 7 -12 16 -15 9 -3 12 -11 8 -18 -5 -10 -4 -10 6 -1
11 10 11 15 0 28 -14 17 -30 20 -30 6z"/>
<path d="M1410 2574 c0 -3 5 -14 10 -24 8 -16 8 -18 -5 -14 -8 4 -15 1 -15 -6
0 -6 8 -10 18 -8 9 2 16 10 15 16 -2 7 6 12 17 12 12 0 20 7 20 16 0 13 -3 14
-14 5 -10 -8 -16 -9 -21 -1 -7 11 -25 14 -25 4z"/>
<path d="M1528 2549 c5 -35 -12 -59 -42 -59 -16 0 -18 -2 -7 -9 7 -5 10 -14 7
-20 -5 -7 1 -11 13 -11 12 0 21 -4 21 -10 0 -5 4 -10 9 -10 5 0 7 9 4 20 -3
11 -9 20 -14 20 -5 0 -9 5 -9 11 0 8 5 7 15 -1 12 -10 19 -10 27 -2 9 9 8 12
-4 12 -13 0 -15 8 -11 39 3 21 1 41 -4 44 -5 3 -8 -7 -5 -24z"/>
<path d="M912 2545 c0 -16 2 -22 5 -12 2 9 2 23 0 30 -3 6 -5 -1 -5 -18z"/>
<path d="M1796 2563 c-10 -11 -7 -31 7 -36 7 -3 13 3 14 14 2 20 -10 33 -21
22z"/>
<path d="M1864 2556 c-10 -8 -16 -17 -13 -20 3 -3 14 3 24 14 21 23 17 26 -11
6z"/>
<path d="M1986 2540 c10 -16 19 -28 21 -26 5 5 -22 56 -30 56 -5 0 0 -13 9
-30z"/>
<path d="M959 2544 c-1 -5 -1 -13 0 -18 1 -5 -4 -13 -11 -17 -10 -7 -9 -9 3
-9 27 0 42 25 24 40 -8 7 -16 9 -16 4z"/>
<path d="M1474 2538 c-6 -10 4 -28 16 -28 5 0 14 8 19 18 8 14 6 18 -11 18
-10 0 -22 -4 -24 -8z"/>
<path d="M1030 2530 c0 -6 6 -9 13 -7 8 1 12 -12 11 -46 -1 -39 1 -46 12 -36
16 13 19 43 4 34 -14 -8 -13 1 4 33 13 26 13 27 -15 29 -16 1 -29 -2 -29 -7z"/>
<path d="M1194 2529 c-3 -6 2 -18 11 -27 10 -10 15 -12 11 -5 -3 6 -2 14 4 18
11 7 4 25 -10 25 -5 0 -12 -5 -16 -11z"/>
<path d="M1250 2525 c-8 -9 -8 -15 -2 -15 12 0 26 19 19 26 -2 2 -10 -2 -17
-11z"/>
<path d="M1700 2528 c0 -10 9 -27 20 -38 11 -11 20 -22 20 -25 0 -3 0 -9 0
-14 0 -4 20 -19 44 -32 37 -19 47 -21 60 -10 16 14 13 31 -6 31 -5 0 -8 -7 -4
-15 3 -8 1 -15 -5 -15 -17 0 -49 20 -49 31 0 6 5 7 12 3 6 -4 4 4 -5 17 -10
13 -21 24 -26 24 -4 0 -20 14 -34 30 -21 23 -26 26 -27 13z"/>
<path d="M725 2516 c-11 -8 -16 -18 -11 -23 5 -4 11 -2 13 5 6 14 29 16 38 2
9 -14 -13 -50 -30 -50 -8 0 -14 3 -14 8 3 19 -2 26 -10 13 -9 -15 -45 -2 -40
15 1 5 -6 10 -17 11 -10 2 -13 0 -6 -3 19 -9 14 -23 -13 -36 l-25 -11 37 -14
c47 -16 56 -16 47 -2 -5 8 0 10 17 6 13 -3 40 -2 59 3 29 6 31 8 10 9 -24 2
-24 2 -6 16 11 8 29 15 40 15 16 0 17 3 8 12 -9 9 -15 9 -24 0 -9 -9 -14 -6
-22 10 -14 28 -27 32 -51 14z"/>
<path d="M1660 2523 c0 -3 7 -11 15 -20 12 -11 13 -19 5 -28 -9 -11 -7 -12 10
-8 15 4 18 9 11 16 -6 6 -11 18 -11 27 0 9 -7 17 -15 17 -8 0 -15 -2 -15 -4z"/>
<path d="M856 2511 c-3 -5 1 -14 9 -21 13 -10 15 -9 15 9 0 21 -14 28 -24 12z"/>
<path d="M1853 2511 c5 -23 34 -38 48 -24 6 6 8 17 4 24 -6 9 -11 8 -21 -5
-11 -16 -13 -16 -24 1 -6 10 -10 12 -7 4z"/>
<path d="M1012 2467 c2 -20 9 -39 16 -42 9 -3 11 4 7 28 -9 48 -26 59 -23 14z"/>
<path d="M1603 2480 c14 -11 30 -20 36 -20 8 0 7 6 -1 20 -7 11 -24 20 -37 20
l-24 0 26 -20z"/>
<path d="M1650 2490 c0 -5 5 -10 11 -10 5 0 7 5 4 10 -3 6 -8 10 -11 10 -2 0
-4 -4 -4 -10z"/>
<path d="M1987 2471 c-4 -17 -3 -21 5 -13 5 5 8 16 6 23 -3 8 -7 3 -11 -10z"/>
<path d="M2019 2449 l-24 -20 30 17 c39 24 40 24 28 24 -6 0 -21 -9 -34 -21z"/>
<path d="M1939 2451 c8 -5 11 -16 8 -25 -4 -10 -1 -16 9 -16 11 0 14 6 10 16
-3 9 -6 20 -6 25 0 5 -8 9 -17 9 -15 0 -15 -2 -4 -9z"/>
<path d="M970 2439 c0 -5 5 -7 10 -4 6 3 10 1 10 -5 0 -6 -10 -15 -22 -20 -13
-5 -18 -9 -11 -9 24 -2 43 12 43 30 0 10 -7 19 -15 19 -8 0 -15 -5 -15 -11z"/>
<path d="M1879 2421 c-14 -16 -23 -33 -20 -38 9 -13 71 -16 71 -4 0 7 -10 9
-25 5 -30 -8 -31 -1 -4 37 27 38 11 38 -22 0z"/>
<path d="M2101 2446 c2 -2 18 -6 34 -10 22 -5 26 -4 15 4 -14 9 -59 15 -49 6z"/>
<path d="M753 2424 c11 -11 -40 -57 -57 -51 -9 4 -16 2 -16 -3 0 -16 50 -11
56 5 4 8 10 12 15 9 5 -3 9 -1 9 5 0 5 3 16 6 25 4 10 1 16 -7 16 -7 0 -10 -3
-6 -6z"/>
<path d="M880 2423 c0 -5 -19 -7 -42 -5 -32 2 -39 1 -28 -7 8 -6 27 -11 42
-11 15 0 29 -4 32 -9 3 -4 17 -6 32 -3 16 3 21 7 14 12 -6 4 -10 11 -8 16 1 5
-7 10 -19 12 -13 2 -23 0 -23 -5z"/>
<path d="M2105 2403 c0 -14 -6 -28 -13 -30 -7 -3 -11 1 -10 7 2 7 -3 15 -9 17
-7 3 -13 -3 -13 -11 0 -22 27 -31 45 -16 16 13 20 46 7 54 -4 2 -8 -7 -7 -21z"/>
<path d="M795 2389 c-4 -6 -5 -12 -2 -15 2 -3 7 2 10 11 7 17 1 20 -8 4z"/>
<path d="M827 2379 c7 -7 15 -10 18 -7 3 3 -2 9 -12 12 -14 6 -15 5 -6 -5z"/>
<path d="M600 2370 c-13 -8 -13 -10 2 -10 9 0 20 5 23 10 8 13 -5 13 -25 0z"/>
<path d="M551 2343 c0 -12 -11 -31 -23 -43 -18 -16 -19 -20 -5 -20 21 0 40 34
34 63 l-4 22 -2 -22z"/>
<path d="M761 2327 c-15 -15 -14 -27 2 -23 6 3 24 7 40 10 15 4 27 10 27 14 0
12 -56 12 -69 -1z"/>
<path d="M2049 2338 c-7 -25 -7 -48 1 -53 5 -3 7 0 4 8 -3 8 2 17 11 21 9 3
13 10 10 16 -5 9 -24 14 -26 8z"/>
<path d="M678 2304 c26 -18 28 -50 5 -78 -10 -12 -11 -15 -3 -8 19 17 33 15
26 -3 -3 -8 -1 -15 3 -15 5 0 11 7 15 15 3 9 12 12 23 8 16 -6 16 -5 4 10 -7
9 -11 24 -7 33 4 11 1 14 -12 10 -13 -5 -22 1 -30 19 -6 14 -19 25 -29 25 -15
0 -14 -3 5 -16z m49 -59 c0 -8 -4 -15 -9 -15 -10 0 -11 14 -1 23 9 10 10 9 10
-8z"/>
<path d="M664 2292 c4 -7 1 -15 -8 -18 -20 -8 -21 -24 -1 -24 21 0 31 29 15
43 -10 9 -11 9 -6 -1z"/>
<path d="M2080 2290 c0 -5 4 -10 9 -10 6 0 13 5 16 10 3 6 -1 10 -9 10 -9 0
-16 -4 -16 -10z"/>
<path d="M614 2279 c-3 -6 -1 -16 5 -22 8 -8 11 -5 11 11 0 24 -5 28 -16 11z"/>
<path d="M2220 2270 c0 -5 5 -10 10 -10 6 0 10 5 10 10 0 6 -4 10 -10 10 -5 0
-10 -4 -10 -10z"/>
<path d="M2280 2266 c0 -9 7 -19 15 -23 23 -8 25 0 4 21 -17 18 -19 18 -19 2z"/>
<path d="M576 2251 c-3 -5 1 -11 9 -15 8 -3 15 -16 15 -28 1 -22 1 -22 15 -4
13 17 12 21 -7 38 -24 21 -25 21 -32 9z"/>
<path d="M515 2230 c4 -6 11 -8 16 -5 14 9 11 15 -7 15 -8 0 -12 -5 -9 -10z"/>
<path d="M2234 2208 c-5 -9 -17 -17 -27 -19 -16 -4 -15 -6 5 -18 13 -7 20 -10
16 -6 -4 5 0 13 9 20 8 6 14 18 11 26 -4 11 -6 10 -14 -3z"/>
<path d="M2311 2184 c0 -11 3 -14 6 -6 3 7 2 16 -1 19 -3 4 -6 -2 -5 -13z"/>
<path d="M2360 2185 c0 -8 4 -15 10 -15 5 0 7 7 4 15 -4 8 -8 15 -10 15 -2 0
-4 -7 -4 -15z"/>
<path d="M2255 2179 c-9 -14 -2 -20 14 -10 8 6 9 11 3 15 -6 3 -14 1 -17 -5z"/>
<path d="M2440 2164 c0 -12 -7 -27 -15 -34 -8 -7 -15 -16 -15 -21 0 -5 7 -9
15 -9 16 0 21 -25 6 -34 -5 -3 -11 -15 -14 -26 -5 -18 -3 -19 10 -8 14 11 16
10 9 -15 -4 -19 -3 -26 4 -22 5 3 10 22 10 41 0 20 5 34 13 34 9 0 8 3 -2 9
-9 6 -10 11 -2 15 6 4 9 12 6 17 -4 5 3 9 14 9 22 0 29 24 11 35 -6 3 -7 -1
-4 -9 10 -27 -15 -17 -30 12 -14 24 -15 25 -16 6z"/>
<path d="M355 2159 c-4 -6 -5 -12 -2 -15 2 -3 7 2 10 11 7 17 1 20 -8 4z"/>
<path d="M2246 2141 c-3 -5 1 -14 10 -22 12 -10 18 -9 32 5 16 16 16 17 0 10
-11 -3 -18 -1 -18 5 0 13 -17 15 -24 2z"/>
<path d="M2305 2118 c-13 -29 -51 -35 -78 -11 -19 16 -20 16 -8 1 12 -16 11
-18 -3 -18 -9 0 -16 -4 -16 -10 0 -5 5 -10 10 -10 6 0 10 -10 10 -22 0 -17 3
-19 12 -10 7 7 20 12 31 12 10 0 16 4 12 9 -3 6 -14 8 -25 6 -21 -4 -36 10
-21 19 5 4 12 2 15 -3 14 -22 83 23 74 49 -2 6 -8 0 -13 -12z"/>
<path d="M312 2105 c0 -16 2 -22 5 -12 2 9 2 23 0 30 -3 6 -5 -1 -5 -18z"/>
<path d="M365 2110 c-3 -6 1 -7 9 -4 18 7 21 14 7 14 -6 0 -13 -4 -16 -10z"/>
<path d="M2362 2108 c-17 -17 -15 -35 8 -51 11 -8 17 -17 13 -20 -3 -4 -2 -7
4 -7 21 0 21 13 0 31 -19 15 -20 21 -9 38 13 23 3 28 -16 9z"/>
<path d="M490 2101 c0 -6 5 -13 10 -16 6 -3 10 1 10 9 0 9 -4 16 -10 16 -5 0
-10 -4 -10 -9z"/>
<path d="M406 2087 c-14 -10 -16 -16 -7 -22 15 -9 35 8 30 24 -3 8 -10 7 -23
-2z"/>
<path d="M457 2074 c-3 -3 -3 -12 0 -20 6 -16 39 -19 48 -4 3 6 -1 7 -9 4 -11
-4 -16 0 -16 10 0 16 -11 21 -23 10z"/>
<path d="M2485 2071 c-3 -6 1 -11 9 -11 9 0 16 -4 16 -9 0 -14 -28 -33 -39
-27 -6 4 -6 -6 1 -26 14 -42 22 -50 16 -16 -4 20 0 28 14 31 14 4 19 13 16 33
-3 29 -22 43 -33 25z"/>
<path d="M325 2050 c4 -14 16 -34 27 -45 17 -18 17 -15 -3 20 -29 51 -33 56
-24 25z"/>
<path d="M2304 2028 c3 -7 7 -25 10 -40 4 -16 10 -28 14 -28 9 0 7 53 -3 69
-9 15 -25 14 -21 -1z"/>
<path d="M255 2000 c-3 -6 1 -7 9 -4 18 7 21 14 7 14 -6 0 -13 -4 -16 -10z"/>
<path d="M304 2001 c3 -5 16 -11 28 -14 22 -6 22 -5 4 8 -22 17 -40 20 -32 6z"/>
<path d="M2370 2003 c0 -15 18 -35 23 -27 3 5 -1 15 -9 22 -8 7 -14 9 -14 5z"/>
<path d="M2345 1991 c-3 -5 -1 -12 5 -16 5 -3 10 1 10 9 0 18 -6 21 -15 7z"/>
<path d="M2407 1985 c-3 -11 -8 -31 -11 -45 -2 -14 -5 -29 -6 -35 -1 -5 -2
-23 -1 -39 l1 -29 20 23 c20 23 27 50 12 50 -4 0 -6 15 -4 34 5 43 -2 69 -11
41z"/>
<path d="M353 1967 c-31 -14 -29 -29 2 -21 20 5 25 2 26 -12 0 -11 3 -14 5 -8
3 6 1 20 -3 31 -7 17 -12 19 -30 10z"/>
<path d="M2557 1961 c-2 -10 -1 -25 4 -32 7 -12 9 -11 10 1 0 10 3 8 9 -5 8
-19 9 -19 9 2 2 46 -22 71 -32 34z"/>
<path d="M190 1960 c0 -5 5 -10 11 -10 5 0 7 5 4 10 -3 6 -8 10 -11 10 -2 0
-4 -4 -4 -10z"/>
<path d="M406 1910 l7 -32 -27 17 c-15 10 -30 14 -34 10 -4 -4 3 -14 16 -22
26 -18 29 -31 6 -29 -9 0 -19 -5 -22 -13 -3 -10 0 -12 12 -8 10 4 16 1 16 -6
0 -17 -29 -56 -30 -39 0 10 -4 10 -20 0 -11 -7 -20 -17 -20 -23 0 -5 -12 -19
-27 -31 -37 -29 -23 -42 15 -15 17 12 34 21 39 21 12 0 53 73 53 93 0 9 6 20
13 24 22 13 29 59 12 73 -13 11 -14 8 -9 -20z"/>
<path d="M2484 1925 c-4 -10 1 -23 12 -33 17 -16 17 -16 5 1 -12 14 -11 17 4
17 9 0 15 5 13 12 -7 19 -27 21 -34 3z"/>
<path d="M648 1901 c-183 -73 -287 -272 -190 -364 15 -15 43 -29 62 -32 l35
-5 -32 10 c-71 23 -95 115 -53 207 39 88 177 193 253 193 76 0 88 -90 33 -255
-19 -57 -51 -135 -71 -175 -20 -39 -33 -75 -30 -80 13 -21 34 6 71 88 62 141
154 287 214 341 11 9 8 9 -10 -1 -14 -8 -50 -51 -80 -96 -30 -44 -56 -79 -58
-77 -2 1 4 27 12 56 23 78 21 142 -7 174 -30 35 -87 41 -149 16z"/>
<path d="M280 1895 c0 -8 5 -15 11 -15 5 0 7 -5 3 -12 -4 -7 -3 -8 4 -4 17 10
15 46 -3 46 -8 0 -15 -7 -15 -15z"/>
<path d="M160 1848 c-22 -37 -10 -50 21 -22 21 19 26 40 7 28 -8 -5 -9 -2 -5
9 11 28 -2 19 -23 -15z"/>
<path d="M230 1876 c0 -2 8 -10 18 -17 15 -13 16 -12 3 4 -13 16 -21 21 -21
13z"/>
<path d="M2510 1865 c-6 -8 -10 -22 -8 -32 4 -23 38 -30 38 -8 0 11 -5 15 -15
11 -21 -8 -19 21 3 33 9 6 12 11 6 11 -6 0 -17 -7 -24 -15z"/>
<path d="M2630 1850 c0 -5 5 -10 10 -10 6 0 10 5 10 10 0 6 -4 10 -10 10 -5 0
-10 -4 -10 -10z"/>
<path d="M979 1839 c23 -9 24 -13 18 -72 -8 -79 -40 -183 -84 -271 -22 -44
-31 -72 -24 -79 14 -14 29 0 58 56 76 151 226 337 271 337 31 0 28 -23 -14
-122 -82 -189 -92 -251 -49 -293 13 -14 30 -25 36 -25 23 0 0 -12 -66 -35
-112 -39 -175 -103 -175 -176 0 -45 25 -69 71 -68 l34 1 -30 7 c-20 4 -33 15
-39 32 -29 83 81 185 237 223 l28 7 -35 -63 c-19 -35 -51 -101 -72 -147 -111
-254 -229 -371 -375 -371 -149 0 -214 114 -122 213 23 24 24 28 7 19 -32 -17
-54 -58 -61 -110 -5 -42 -2 -52 21 -79 61 -73 183 -81 306 -21 124 61 186 150
275 397 44 123 69 173 83 169 16 -4 52 14 52 27 0 27 -22 27 -49 1 -33 -31
-73 -34 -101 -6 -36 36 -21 123 50 280 54 119 57 160 12 160 -44 0 -102 -51
-183 -159 -40 -55 -75 -98 -77 -97 -1 2 7 32 18 67 11 35 23 90 26 121 8 66
-4 88 -45 87 l-26 0 24 -10z m327 -454 c-21 -16 -32 -13 -21 4 3 6 14 11 23
11 15 -1 15 -2 -2 -15z"/>
<path d="M2404 1817 c3 -10 6 -21 6 -23 0 -2 9 -4 20 -4 11 0 20 7 20 15 0 8
-5 15 -11 15 -5 0 -7 -4 -4 -10 11 -18 -14 -11 -25 8 -11 16 -11 16 -6 -1z"/>
<path d="M230 1804 c0 -9 7 -14 17 -12 24 4 27 23 3 25 -12 1 -20 -4 -20 -13z"/>
<path d="M2624 1788 c-7 -23 -20 -38 -44 -50 -19 -9 -28 -17 -19 -18 25 0 66
37 73 66 10 39 1 40 -10 2z"/>
<path d="M1462 1794 c-26 -18 -70 -100 -112 -211 -16 -41 -41 -91 -55 -111
l-27 -37 26 28 c31 33 36 34 36 2 0 -18 7 -26 26 -31 15 -4 30 -2 37 5 9 9 8
11 -4 6 -9 -3 -22 1 -29 9 -19 24 -4 78 33 121 17 20 41 51 51 69 23 38 10 25
-28 -27 -15 -21 -30 -36 -33 -34 -6 7 64 157 84 179 28 31 34 20 14 -32 -11
-27 -15 -48 -11 -45 4 3 15 25 23 49 12 34 13 48 4 60 -11 15 -14 15 -35 0z"/>
<path d="M1823 1767 c-10 -13 -27 -43 -37 -66 -15 -32 -25 -41 -45 -42 -17 -1
-20 -3 -8 -6 9 -2 17 -10 17 -17 0 -18 -47 -135 -62 -155 -12 -14 -11 -15 5
-2 15 12 17 11 17 -7 0 -24 34 -47 53 -36 6 4 22 16 34 26 21 20 21 20 27 0 8
-24 35 -37 50 -22 7 7 5 10 -6 10 -42 0 -15 82 46 144 36 35 79 48 89 26 3 -6
4 -5 3 2 -2 8 -19 13 -49 12 -56 0 -86 -24 -118 -93 -43 -91 -99 -124 -99 -58
0 35 8 50 59 120 21 28 43 47 55 48 17 1 18 2 4 6 -16 4 -16 7 -3 33 8 16 15
33 15 37 -1 4 -10 -9 -21 -29 -21 -41 -55 -54 -44 -17 10 32 46 89 55 89 5 0
11 -8 14 -17 3 -11 4 -8 3 7 -3 33 -30 37 -54 7z m-9 -129 c-19 -33 -47 -69
-50 -65 -9 9 27 77 42 77 9 0 12 -5 8 -12z"/>
<path d="M2424 1766 c7 -39 19 -56 39 -56 21 0 20 2 -8 26 -16 14 -23 23 -14
21 8 -3 26 1 40 9 23 13 23 13 -17 12 -24 -1 -41 -6 -40 -12z"/>
<path d="M203 1750 c-4 -16 -9 -18 -25 -9 -14 7 -23 7 -34 -2 -16 -13 -19 -49
-4 -49 6 0 10 9 10 21 0 17 4 20 29 14 23 -5 29 -2 34 15 4 14 10 19 18 14 8
-4 10 -3 5 4 -11 18 -27 14 -33 -8z"/>
<path d="M2522 1754 c2 -14 -3 -19 -19 -18 -30 1 -29 -2 5 -20 26 -14 27 -13
29 15 1 15 -2 31 -8 35 -6 3 -9 -2 -7 -12z"/>
<path d="M196 1691 c-10 -11 -25 -17 -34 -14 -10 4 -13 2 -8 -5 7 -12 2 -14
-43 -16 -13 -1 -26 -8 -28 -16 -4 -12 -3 -12 5 -1 14 20 25 -4 17 -37 -6 -25
-6 -26 13 -9 10 9 26 17 35 17 9 0 19 5 22 10 3 6 1 10 -6 10 -21 0 9 27 38
35 19 4 23 9 14 15 -10 6 -9 10 5 19 16 8 16 10 3 11 -9 0 -24 -9 -33 -19z"/>
<path d="M300 1700 c-13 -8 -12 -10 3 -10 9 0 17 5 17 10 0 12 -1 12 -20 0z"/>
<path d="M628 1693 c54 -11 49 -81 -11 -144 -27 -28 -28 -31 -7 -18 35 22 70
77 70 110 0 34 -24 59 -53 58 -22 -2 -22 -2 1 -6z"/>
<path d="M1283 1685 c-3 -9 -3 -18 0 -22 10 -10 37 6 37 22 0 20 -29 20 -37 0z"/>
<path d="M1514 1689 c-3 -6 -2 -15 4 -21 13 -13 32 -2 32 18 0 16 -26 19 -36
3z"/>
<path d="M2096 1688 c-21 -75 -25 -93 -21 -97 3 -2 5 1 5 7 0 18 40 14 47 -5
4 -9 -3 -33 -15 -54 -40 -69 -19 -129 33 -95 14 9 25 20 25 23 0 4 -5 2 -12
-5 -18 -18 -38 -14 -38 7 0 11 14 48 30 83 l30 63 -40 3 c-40 3 -40 3 -24 27
17 25 13 55 -6 55 -6 0 -12 -6 -14 -12z"/>
<path d="M2254 1689 c-3 -6 -2 -15 4 -21 13 -13 32 -2 32 18 0 16 -26 19 -36
3z"/>
<path d="M2578 1693 c7 -3 16 -2 19 1 4 3 -2 6 -13 5 -11 0 -14 -3 -6 -6z"/>
<path d="M271 1674 c0 -11 3 -14 6 -6 3 7 2 16 -1 19 -3 4 -6 -2 -5 -13z"/>
<path d="M2610 1686 c0 -2 7 -7 16 -10 8 -3 12 -2 9 4 -6 10 -25 14 -25 6z"/>
<path d="M295 1660 c-3 -5 -1 -10 4 -10 6 0 11 5 11 10 0 6 -2 10 -4 10 -3 0
-8 -4 -11 -10z"/>
<path d="M1638 1659 c-10 -5 -23 -19 -29 -31 -6 -11 -7 -18 -1 -14 15 9 26
-118 12 -143 -12 -24 -21 -26 -40 -8 -12 10 -12 9 -1 -5 12 -15 11 -18 -3 -18
-21 0 -33 29 -16 40 7 4 10 14 8 21 -3 8 3 31 13 51 29 57 22 60 -9 4 -37 -67
-46 -81 -62 -102 -10 -14 -10 -16 -1 -7 11 9 18 9 35 -2 11 -7 39 -13 61 -13
22 0 34 3 28 5 -9 3 -6 13 9 34 20 27 21 33 9 72 -25 82 -25 93 0 111 25 17
15 22 -13 5z"/>
<path d="M2650 1666 c0 -2 8 -10 18 -17 15 -13 16 -12 3 4 -13 16 -21 21 -21
13z"/>
<path d="M225 1650 c-3 -5 -4 -14 -1 -19 12 -18 -6 -43 -27 -37 -14 3 -17 2
-10 -5 19 -19 48 -6 48 21 0 14 4 28 9 31 4 4 3 9 -2 13 -6 3 -13 2 -17 -4z"/>
<path d="M313 1641 c-13 -11 -23 -27 -23 -37 0 -16 1 -16 19 0 15 13 36 58 28
56 -1 -1 -12 -9 -24 -19z"/>
<path d="M1237 1553 c-15 -43 -27 -81 -27 -85 0 -11 30 -38 43 -38 8 0 7 4 -1
12 -18 18 -15 40 18 113 35 79 35 75 12 75 -13 0 -25 -20 -45 -77z"/>
<path d="M1490 1613 c0 -10 -18 -52 -40 -93 -22 -41 -34 -67 -27 -57 18 22 27
22 27 -2 0 -10 7 -22 16 -25 24 -9 29 -7 16 6 -18 18 -15 39 18 111 17 37 30
69 30 72 0 3 -9 5 -20 5 -12 0 -20 -7 -20 -17z"/>
<path d="M2230 1615 c0 -8 -13 -42 -29 -75 -15 -33 -24 -60 -20 -60 5 0 9 -9
9 -19 0 -10 7 -22 16 -25 24 -9 29 -7 16 6 -18 18 -15 39 18 111 17 37 30 69
30 72 0 3 -9 5 -20 5 -11 0 -20 -7 -20 -15z"/>
<path d="M2560 1610 c0 -38 58 -37 67 1 3 8 0 7 -7 -3 -6 -10 -20 -18 -32 -18
-16 0 -18 3 -9 13 6 8 8 17 4 20 -12 13 -23 7 -23 -13z"/>
<path d="M2650 1610 c6 -11 13 -20 16 -20 2 0 0 9 -6 20 -6 11 -13 20 -16 20
-2 0 0 -9 6 -20z"/>
<path d="M1983 1588 c-13 -16 -81 -117 -89 -132 -4 -6 6 3 21 19 17 19 25 23
21 12 -7 -22 10 -57 27 -57 26 0 108 114 107 147 -1 4 -12 -14 -27 -42 -29
-58 -62 -97 -74 -89 -15 9 -10 37 16 88 23 46 22 83 -2 54z"/>
<path d="M2502 1591 c-11 -7 -10 -10 3 -15 23 -9 25 -8 25 9 0 17 -9 19 -28 6z"/>
<path d="M300 1545 c0 -10 -6 -12 -17 -8 -10 4 -2 -8 17 -25 40 -37 54 -41 45
-12 -4 11 -2 20 4 20 6 0 11 5 11 11 0 6 -9 8 -20 4 -14 -5 -20 -2 -20 9 0 9
-4 16 -10 16 -5 0 -10 -7 -10 -15z m25 -25 c3 -5 2 -10 -4 -10 -5 0 -13 5 -16
10 -3 6 -2 10 4 10 5 0 13 -4 16 -10z"/>
<path d="M2510 1540 c0 -5 5 -10 11 -10 5 0 7 5 4 10 -3 6 -8 10 -11 10 -2 0
-4 -4 -4 -10z"/>
<path d="M142 1524 c-7 -8 -8 -14 -3 -14 10 0 25 19 20 25 -2 1 -10 -3 -17
-11z"/>
<path d="M2289 1508 c-6 -13 -21 -34 -33 -48 l-21 -25 24 20 c22 19 57 75 47
75 -3 0 -11 -10 -17 -22z"/>
<path d="M248 1513 c9 -4 10 -8 2 -18 -14 -17 7 -32 22 -17 13 13 -7 43 -26
41 -6 0 -6 -3 2 -6z"/>
<path d="M123 1471 c18 -21 26 -40 22 -52 -4 -11 -2 -19 4 -19 23 0 10 47 -21
76 l-32 29 27 -34z"/>
<path d="M220 1467 c0 -19 16 -31 24 -18 3 5 -1 14 -9 21 -12 10 -15 10 -15
-3z"/>
<path d="M215 1431 c-12 -11 -3 -22 14 -16 11 3 22 1 26 -5 10 -17 23 -11 18
8 -4 16 -46 26 -58 13z"/>
<path d="M2590 1420 c0 -5 5 -10 10 -10 6 0 10 5 10 10 0 6 -4 10 -10 10 -5 0
-10 -4 -10 -10z"/>
<path d="M2520 1372 c0 -16 4 -20 17 -15 12 5 15 2 10 -10 -3 -9 1 -21 10 -29
14 -11 16 -10 11 9 -4 13 -2 26 3 29 16 9 10 26 -7 20 -9 -4 -23 -1 -30 5 -11
9 -14 7 -14 -9z"/>
<path d="M2630 1367 c0 -13 11 -34 25 -47 30 -28 34 -19 4 11 -12 12 -19 29
-16 40 3 10 1 19 -4 19 -5 0 -9 -10 -9 -23z"/>
<path d="M175 1370 c-3 -5 -2 -10 4 -10 5 0 13 5 16 10 3 6 2 10 -4 10 -5 0
-13 -4 -16 -10z"/>
<path d="M1840 1290 c-15 -16 -40 -60 -55 -97 -16 -38 -38 -92 -51 -120 -13
-29 -19 -53 -14 -53 5 0 10 -10 12 -22 2 -17 10 -24 33 -25 27 -2 28 -2 8 7
-13 5 -23 18 -23 30 0 31 24 82 50 105 12 11 27 29 32 40 6 11 -6 2 -26 -20
l-36 -40 31 70 c43 98 67 135 85 128 10 -4 12 0 8 11 -9 23 -22 20 -54 -14z"/>
<path d="M2512 1303 c4 -24 23 -27 25 -3 1 12 -4 20 -13 20 -9 0 -14 -7 -12
-17z"/>
<path d="M2605 1310 c-3 -6 1 -7 9 -4 18 7 21 14 7 14 -6 0 -13 -4 -16 -10z"/>
<path d="M2445 1300 c4 -6 1 -17 -5 -25 -10 -12 -9 -15 5 -15 10 0 24 -8 31
-17 12 -17 13 -17 14 -1 0 13 7 16 34 11 18 -3 36 -1 39 4 3 5 -6 8 -21 5 -19
-2 -36 4 -55 22 -28 26 -54 36 -42 16z m35 -20 c0 -5 -2 -10 -4 -10 -3 0 -8 5
-11 10 -3 6 -1 10 4 10 6 0 11 -4 11 -10z"/>
<path d="M1863 1229 c-12 -27 -20 -49 -18 -49 8 0 46 81 43 90 -2 4 -13 -14
-25 -41z"/>
<path d="M2630 1263 c0 -10 4 -14 8 -8 4 6 11 13 16 18 5 4 2 7 -7 7 -10 0
-17 -8 -17 -17z"/>
<path d="M260 1260 c0 -5 5 -10 10 -10 6 0 10 5 10 10 0 6 -4 10 -10 10 -5 0
-10 -4 -10 -10z"/>
<path d="M256 1221 c-3 -5 0 -14 8 -20 10 -9 17 -7 27 6 9 11 10 14 2 9 -7 -4
-13 -2 -13 3 0 13 -17 14 -24 2z"/>
<path d="M1907 1213 c-3 -5 -9 -24 -15 -43 -5 -19 -13 -44 -17 -55 -6 -18 -5
-18 7 1 10 17 18 20 36 13 13 -5 22 -12 20 -16 -53 -104 -56 -135 -12 -140 10
-2 13 0 7 3 -20 9 -16 33 17 102 l29 62 -34 0 c-34 0 -46 12 -25 25 6 3 10 15
10 25 0 20 -16 35 -23 23z"/>
<path d="M2560 1205 c-7 -8 -10 -24 -7 -34 3 -11 0 -22 -7 -25 -6 -2 0 -5 13
-5 19 -1 21 2 12 13 -14 17 -4 46 16 46 8 0 11 5 8 10 -9 14 -21 12 -35 -5z"/>
<path d="M170 1195 c-7 -9 -11 -17 -9 -20 3 -2 10 5 17 15 14 24 10 26 -8 5z"/>
<path d="M214 1202 c3 -5 1 -12 -6 -14 -13 -5 -2 -28 13 -28 13 0 11 37 -3 46
-6 4 -8 3 -4 -4z"/>
<path d="M1103 1181 c0 -19 -9 -42 -24 -59 l-24 -27 24 20 c29 25 44 62 33 82
-6 10 -9 6 -9 -16z"/>
<path d="M2477 1193 c-8 -10 -17 -29 -20 -43 -2 -14 -2 -20 0 -13 2 7 13 15
24 18 12 4 19 15 19 31 0 29 -2 29 -23 7z"/>
<path d="M2675 1201 c-3 -5 -19 -12 -35 -16 -28 -6 -43 -25 -19 -25 21 0 -2
-18 -31 -23 -16 -4 -30 -11 -30 -16 0 -6 8 -8 18 -5 11 4 8 -1 -8 -15 -14 -11
-20 -21 -14 -21 6 0 23 12 38 26 14 15 26 22 26 15 0 -6 4 -11 10 -11 5 0 7 6
4 14 -6 17 30 28 45 13 6 -6 14 -7 18 -3 4 4 1 11 -6 15 -9 6 -11 18 -7 35 6
26 2 34 -9 17z"/>
<path d="M130 1181 c15 -30 30 -35 17 -6 -7 14 -16 25 -20 25 -4 0 -3 -9 3
-19z"/>
<path d="M1280 1163 c-33 -12 -79 -67 -90 -109 -11 -39 -11 -47 5 -64 25 -28
67 -25 96 6 l24 26 5 -24 c8 -31 41 -34 66 -6 l19 23 -22 -18 c-21 -18 -43
-16 -43 4 0 14 41 100 63 132 l20 29 -22 -4 c-16 -2 -33 -23 -57 -68 -47 -85
-72 -112 -104 -108 -18 2 -26 10 -28 27 -7 49 76 167 101 142 13 -13 -9 -49
-46 -71 -18 -11 -27 -20 -21 -20 16 0 62 38 75 61 7 15 7 24 -2 35 -12 15 -15
16 -39 7z"/>
<path d="M1552 1158 c-7 -7 -12 -30 -12 -52 0 -25 -10 -58 -25 -85 -14 -24
-19 -39 -12 -32 16 13 62 111 72 154 8 28 -3 35 -23 15z"/>
<path d="M1663 1150 c-56 -33 -93 -136 -61 -168 19 -19 63 -14 89 9 l24 21
-25 -16 c-34 -22 -67 -20 -75 4 -14 43 85 188 100 147 4 -8 -1 -28 -10 -44
l-17 -28 21 24 c25 28 27 56 5 65 -20 8 -14 9 -51 -14z"/>
<path d="M1474 1148 c-46 -73 -60 -115 -52 -145 7 -28 13 -33 36 -32 25 2 25
2 3 6 -20 4 -22 9 -17 35 3 17 19 57 36 89 22 44 26 59 15 59 -7 0 -17 -5 -21
-12z"/>
<path d="M2026 1114 c-14 -26 -26 -49 -26 -51 0 -3 -10 -19 -22 -36 -14 -20
-16 -27 -6 -19 14 11 17 10 20 -10 2 -15 11 -24 26 -26 22 -3 30 4 82 68 l20
25 -14 -42 c-25 -73 -31 -79 -101 -98 -70 -19 -125 -56 -124 -83 0 -13 2 -12
9 3 4 12 15 26 23 34 18 14 139 53 145 46 9 -9 -67 -91 -102 -110 -31 -17 -39
-18 -59 -6 -21 12 -21 12 -5 -4 36 -38 118 3 179 91 16 24 48 53 69 64 21 11
41 24 45 30 3 5 -10 0 -30 -11 -20 -12 -38 -19 -40 -17 -7 7 42 147 61 176 14
22 14 24 -2 20 -9 -1 -34 -32 -56 -68 -51 -85 -84 -118 -99 -103 -14 14 9 82
46 138 23 32 23 35 6 35 -12 0 -29 -17 -45 -46z"/>
<path d="M135 1125 c30 -25 81 -42 92 -31 4 3 -2 6 -13 6 -10 0 -39 11 -64 25
l-45 25 30 -25z"/>
<path d="M2502 1114 c-7 -8 -17 -12 -21 -9 -5 2 -11 -5 -14 -16 -5 -19 -4 -20
12 -5 10 9 23 16 29 16 7 0 12 7 12 15 0 18 -1 18 -18 -1z"/>
<path d="M2500 1078 c-19 -12 -38 -22 -41 -23 -21 -1 -74 -91 -59 -100 5 -3
10 3 10 13 0 17 28 51 37 45 13 -10 33 0 33 17 0 11 6 20 14 20 7 0 21 11 30
25 20 30 20 30 -24 3z"/>
<path d="M2640 1086 c0 -21 -19 -30 -35 -16 -12 10 -17 7 -25 -15 -6 -17 -14
-24 -22 -19 -10 5 -10 4 -1 -6 15 -16 33 -5 33 21 0 16 3 17 19 8 10 -7 26 -9
35 -6 17 7 23 47 6 47 -5 0 -10 -6 -10 -14z"/>
<path d="M256 1067 c-8 -31 -7 -37 4 -37 6 0 9 6 8 13 -2 7 8 12 24 12 14 -1
24 3 22 7 -10 16 13 7 30 -11 16 -18 16 -18 -9 -18 -15 0 -32 -6 -38 -12 -8
-8 0 -10 30 -8 41 2 43 4 29 45 -6 19 -13 23 -34 19 -15 -3 -34 -1 -43 4 -13
6 -18 3 -23 -14z"/>
<path d="M1833 1034 c-17 -30 -27 -52 -22 -49 11 8 63 95 58 99 -2 2 -18 -21
-36 -50z"/>
<path d="M186 1048 c-13 -13 -27 -34 -30 -48 -4 -19 -2 -17 9 7 8 18 27 39 42
47 16 8 23 15 16 16 -7 0 -23 -10 -37 -22z"/>
<path d="M340 985 c0 -8 4 -15 8 -15 5 0 9 7 9 15 0 8 -4 15 -9 15 -4 0 -8 -7
-8 -15z"/>
<path d="M370 995 c0 -15 18 -40 24 -34 3 3 -1 14 -9 25 -8 10 -14 15 -15 9z"/>
<path d="M2523 985 c-3 -9 -3 -19 1 -22 3 -4 6 -1 6 5 0 6 7 9 15 6 9 -4 15 0
15 10 0 20 -29 21 -37 1z"/>
<path d="M257 983 c-13 -12 -7 -35 7 -30 8 3 17 1 20 -6 2 -7 5 -5 5 4 1 19
-23 42 -32 32z"/>
<path d="M2450 979 c0 -5 5 -7 10 -4 6 3 10 8 10 11 0 2 -4 4 -10 4 -5 0 -10
-5 -10 -11z"/>
<path d="M2605 964 c-17 -17 -16 -35 2 -41 6 -2 18 10 26 26 13 25 13 31 2 31
-7 0 -21 -7 -30 -16z m15 -18 c0 -3 -4 -8 -10 -11 -5 -3 -10 -1 -10 4 0 6 5
11 10 11 6 0 10 -2 10 -4z"/>
<path d="M2417 956 c-3 -8 -2 -18 3 -21 13 -8 24 15 12 27 -6 6 -11 4 -15 -6z"/>
<path d="M145 951 c-3 -5 -1 -12 5 -16 5 -3 10 1 10 9 0 18 -6 21 -15 7z"/>
<path d="M350 939 c0 -5 5 -7 11 -3 9 5 10 -1 5 -20 -3 -14 -2 -26 3 -26 5 0
7 -21 4 -47 -7 -75 18 -25 32 63 1 12 -1 27 -6 35 -7 12 -9 12 -9 0 0 -12 -3
-12 -12 -3 -15 15 -28 15 -28 1z"/>
<path d="M209 928 c7 -10 25 -17 40 -17 l26 2 -25 4 c-14 3 -32 10 -40 16 -13
11 -13 10 -1 -5z"/>
<path d="M2380 930 c-10 -6 -5 -13 21 -29 41 -25 60 -27 34 -3 -11 9 -25 22
-31 29 -6 7 -16 8 -24 3z"/>
<path d="M2490 925 c-13 -16 -7 -45 10 -45 15 0 12 30 -2 30 -8 0 -5 7 6 15
11 8 15 15 9 15 -6 0 -16 -7 -23 -15z"/>
<path d="M2530 936 c0 -2 8 -10 18 -17 15 -13 16 -12 3 4 -13 16 -21 21 -21
13z"/>
<path d="M2365 897 c-7 -17 11 -51 24 -43 3 2 22 -28 41 -66 19 -38 36 -65 38
-58 2 6 -8 28 -22 48 -26 37 -26 37 -6 51 11 7 20 18 20 23 0 6 -7 5 -15 -2
-13 -10 -19 -8 -39 11 -12 13 -25 31 -28 39 -5 12 -7 12 -13 -3z"/>
<path d="M285 880 c-19 -7 -19 -8 -2 -15 19 -8 31 -2 26 13 -2 5 -13 6 -24 2z"/>
<path d="M201 870 c-1 -24 11 -60 19 -60 12 0 18 36 9 51 -7 12 -9 11 -10 -1
0 -10 -3 -8 -9 5 -6 13 -9 15 -9 5z"/>
<path d="M403 830 c-8 -22 -8 -30 3 -34 9 -3 11 0 7 11 -4 9 1 21 11 28 13 10
14 14 3 18 -8 3 -18 -6 -24 -23z"/>
<path d="M2585 841 c-3 -5 -1 -12 5 -16 5 -3 10 1 10 9 0 18 -6 21 -15 7z"/>
<path d="M456 809 c0 -17 7 -37 15 -45 13 -13 15 -10 11 20 -5 46 -27 66 -26
25z"/>
<path d="M297 824 c-3 -4 -2 -15 3 -24 7 -14 5 -19 -10 -23 -13 -3 -20 -14
-20 -30 0 -29 14 -42 32 -31 8 5 6 10 -5 19 -19 14 -6 41 16 32 16 -6 16 3 1
41 -6 13 -13 20 -17 16z"/>
<path d="M2538 804 c-16 -8 -28 -17 -28 -19 0 -10 16 -4 40 15 30 23 25 25
-12 4z"/>
<path d="M347 803 c-4 -3 -7 -21 -7 -40 0 -18 -5 -33 -11 -33 -6 0 -8 -8 -5
-17 6 -20 -6 -46 -20 -43 -5 0 -10 -6 -12 -14 -2 -9 2 -16 8 -16 6 0 8 5 5 10
-3 6 -2 10 4 10 6 0 17 -12 25 -27 13 -24 15 -25 16 -8 0 11 7 29 15 39 19 25
19 37 0 30 -20 -8 -19 9 2 49 15 31 15 31 -2 17 -16 -14 -17 -12 -11 18 8 32
6 38 -7 25z"/>
<path d="M2450 800 c8 -5 20 -10 25 -10 6 0 3 5 -5 10 -8 5 -19 10 -25 10 -5
0 -3 -5 5 -10z"/>
<path d="M557 757 c-5 -13 -13 -16 -28 -12 -18 6 -20 4 -14 -14 3 -12 2 -21
-4 -21 -15 0 -41 -30 -41 -48 0 -12 4 -9 13 8 16 31 52 37 80 14 12 -10 16
-12 10 -4 -7 8 -13 17 -13 21 0 4 6 9 13 12 6 2 1 2 -13 0 -23 -3 -24 -2 -7
11 10 8 17 23 15 33 -3 17 -4 17 -11 0z"/>
<path d="M387 753 c-4 -3 2 -13 14 -21 13 -9 19 -21 16 -33 -6 -23 11 -25 20
-2 4 10 -2 22 -15 33 -12 10 -18 20 -15 24 4 3 2 6 -4 6 -5 0 -13 -3 -16 -7z"/>
<path d="M2275 740 c-3 -6 1 -7 9 -4 18 7 21 14 7 14 -6 0 -13 -4 -16 -10z"/>
<path d="M2310 736 c0 -9 7 -16 16 -16 9 0 14 5 12 12 -6 18 -28 21 -28 4z"/>
<path d="M2370 726 c-27 -34 19 -73 48 -40 16 17 16 17 0 5 -19 -14 -48 -9
-48 9 0 6 4 9 9 5 14 -8 25 15 14 26 -6 6 -14 4 -23 -5z"/>
<path d="M2280 700 c0 -5 5 -10 11 -10 5 0 7 5 4 10 -3 6 -8 10 -11 10 -2 0
-4 -4 -4 -10z"/>
<path d="M2472 685 c0 -16 2 -22 5 -12 2 9 2 23 0 30 -3 6 -5 -1 -5 -18z"/>
<path d="M2441 684 c0 -11 3 -14 6 -6 3 7 2 16 -1 19 -3 4 -6 -2 -5 -13z"/>
<path d="M494 669 c-5 -9 -2 -10 9 -6 11 4 17 1 17 -9 0 -9 6 -14 13 -11 6 2
12 10 12 18 0 18 -41 24 -51 8z"/>
<path d="M508 618 c9 -9 15 -9 24 0 9 9 7 12 -12 12 -19 0 -21 -3 -12 -12z"/>
<path d="M553 614 c-7 -7 -13 -21 -13 -31 1 -16 2 -17 13 -2 7 9 21 19 32 21
20 4 20 4 0 15 -15 8 -23 8 -32 -3z"/>
<path d="M2173 586 c-13 -23 4 -46 34 -46 16 1 17 2 2 13 -9 7 -18 21 -21 32
-4 20 -4 20 -15 1z"/>
<path d="M2076 568 c4 -18 2 -28 -5 -28 -6 0 -11 7 -11 15 0 8 -7 15 -16 15
-13 0 -14 -3 -5 -14 6 -8 10 -20 9 -27 -2 -8 3 -13 10 -11 8 1 23 -9 34 -23
11 -14 27 -25 36 -25 12 0 9 4 -8 13 -31 15 -37 52 -14 78 17 19 17 20 0 13
-11 -4 -22 -1 -27 7 -7 9 -8 5 -3 -13z"/>
<path d="M2250 560 c0 -5 7 -10 16 -10 8 0 12 5 9 10 -3 6 -10 10 -16 10 -5 0
-9 -4 -9 -10z"/>
<path d="M438 553 c7 -3 16 -2 19 1 4 3 -2 6 -13 5 -11 0 -14 -3 -6 -6z"/>
<path d="M485 539 c11 -13 21 -26 22 -28 2 -2 3 3 3 12 0 9 -10 22 -22 28
l-23 12 20 -24z"/>
<path d="M2114 535 c-4 -9 -1 -22 6 -28 10 -9 11 -9 6 1 -5 7 -1 12 9 12 9 0
15 5 13 12 -7 19 -27 21 -34 3z"/>
<path d="M550 524 c0 -8 5 -12 10 -9 6 3 10 10 10 16 0 5 -4 9 -10 9 -5 0 -10
-7 -10 -16z"/>
<path d="M2160 520 c0 -19 3 -21 12 -12 9 9 9 15 0 24 -9 9 -12 7 -12 -12z"/>
<path d="M688 503 c7 -3 16 -2 19 1 4 3 -2 6 -13 5 -11 0 -14 -3 -6 -6z"/>
<path d="M2240 489 c-6 -11 -9 -28 -7 -37 3 -12 5 -11 6 5 0 12 11 29 23 37
18 13 19 16 6 16 -10 0 -22 -9 -28 -21z"/>
<path d="M716 475 c-6 -17 9 -29 24 -20 14 9 12 22 -4 28 -8 3 -17 -1 -20 -8z"/>
<path d="M2003 482 c-41 -4 -63 -27 -24 -26 26 1 70 19 61 26 -3 2 -19 2 -37
0z"/>
<path d="M2178 473 c7 -3 16 -2 19 1 4 3 -2 6 -13 5 -11 0 -14 -3 -6 -6z"/>
<path d="M2058 421 c-8 -12 -18 -18 -21 -14 -4 3 -7 2 -7 -4 0 -21 14 -22 28
-2 9 13 21 19 34 16 12 -4 18 -1 15 6 -6 20 -34 19 -49 -2z"/>
<path d="M698 422 c8 -5 13 -12 13 -16 -1 -3 2 -6 7 -6 17 0 5 25 -13 28 -15
2 -16 1 -7 -6z"/>
<path d="M862 417 c-7 -8 -9 -17 -6 -20 4 -3 -5 -9 -19 -12 -22 -6 -23 -9 -13
-31 11 -23 36 -34 36 -15 0 5 -6 12 -12 15 -10 3 -8 9 5 19 9 8 17 19 17 26 0
6 9 11 19 11 18 0 19 -2 6 -27 -8 -15 -12 -29 -10 -32 8 -8 52 47 46 57 -11
18 -57 24 -69 9z"/>
<path d="M1960 405 c24 -13 40 -12 40 3 0 4 -15 8 -33 9 l-32 2 25 -14z"/>
<path d="M671 394 c0 -11 3 -14 6 -6 3 7 2 16 -1 19 -3 4 -6 -2 -5 -13z"/>
<path d="M1860 400 c-14 -4 -18 -8 -10 -9 11 -1 11 -4 2 -13 -15 -15 -15 -28
-1 -28 5 0 7 5 3 11 -5 8 1 10 18 6 14 -4 28 -4 32 0 4 4 26 6 49 4 48 -3 42
14 -8 22 -16 3 -37 7 -45 10 -8 3 -26 1 -40 -3z"/>
<path d="M946 385 c-10 -8 -15 -18 -11 -24 10 -17 28 -13 21 4 -6 17 11 20 34
5 15 -9 16 -13 19 -45 0 -8 6 -15 12 -15 7 0 23 -12 36 -26 32 -35 43 -22 13
18 -12 17 -16 27 -9 23 8 -4 3 3 -11 16 -14 13 -39 31 -55 41 -26 14 -33 14
-49 3z"/>
<path d="M1804 385 c-10 -8 -14 -15 -8 -15 6 0 17 7 24 15 16 19 9 19 -16 0z"/>
<path d="M2032 363 c11 -14 8 -15 -22 -9 -26 5 -31 4 -20 -3 8 -6 27 -11 43
-11 15 0 27 -4 27 -10 0 -5 14 -7 30 -5 24 3 30 0 28 -13 -2 -10 5 -18 17 -20
15 -2 17 -1 6 6 -17 12 -7 30 23 42 l21 9 -21 0 c-12 1 -27 8 -34 16 -7 8 -19
15 -26 15 -8 0 -11 -6 -8 -15 7 -16 -21 -22 -30 -6 -3 5 -15 11 -26 14 -18 5
-19 3 -8 -10z"/>
<path d="M755 343 c-28 -17 -33 -22 -15 -18 14 4 34 16 45 26 25 24 19 23 -30
-8z"/>
<path d="M1732 359 c-24 -9 -30 -46 -8 -46 8 0 12 6 10 12 -3 7 1 17 9 24 12
9 15 7 15 -15 0 -14 5 -31 11 -37 8 -8 10 0 8 29 -2 42 -8 46 -45 33z"/>
<path d="M1256 345 c4 -8 -1 -17 -10 -21 -19 -7 -21 -24 -3 -24 9 0 12 -11 9
-34 -2 -18 0 -36 5 -39 5 -3 8 6 5 21 -2 19 4 36 22 55 29 31 34 52 11 44 -8
-4 -17 -2 -20 3 -10 16 -25 11 -19 -5z m24 -30 c-7 -9 -15 -13 -17 -11 -7 7 7
26 19 26 6 0 6 -6 -2 -15z"/>
<path d="M1790 348 c0 -4 7 -8 15 -8 8 0 15 4 15 8 0 5 -7 9 -15 9 -8 0 -15
-4 -15 -9z"/>
<path d="M678 343 c7 -3 16 -2 19 1 4 3 -2 6 -13 5 -11 0 -14 -3 -6 -6z"/>
<path d="M975 330 c3 -5 8 -10 11 -10 2 0 4 5 4 10 0 6 -5 10 -11 10 -5 0 -7
-4 -4 -10z"/>
<path d="M1145 316 c30 -31 66 -34 43 -4 -7 9 -26 20 -41 24 l-29 7 27 -27z"/>
<path d="M791 314 c0 -11 3 -14 6 -6 3 7 2 16 -1 19 -3 4 -6 -2 -5 -13z"/>
<path d="M1980 312 l-25 -13 27 4 c19 3 28 -1 31 -15 6 -19 51 -26 62 -8 11
19 -6 32 -19 15 -11 -15 -13 -15 -25 -1 -7 8 -10 19 -7 24 8 13 -16 10 -44 -6z"/>
<path d="M673 313 c9 -2 23 -2 30 0 6 3 -1 5 -18 5 -16 0 -22 -2 -12 -5z"/>
<path d="M1080 316 c0 -2 6 -9 13 -15 10 -8 14 -7 14 4 0 8 -6 15 -14 15 -7 0
-13 -2 -13 -4z"/>
<path d="M887 303 c-12 -11 -8 -23 8 -23 8 0 15 5 15 11 0 5 5 7 12 3 7 -4 8
-3 4 4 -8 13 -29 16 -39 5z"/>
<path d="M1907 290 c3 -11 9 -17 14 -14 14 8 10 34 -5 34 -9 0 -12 -7 -9 -20z"/>
<path d="M1574 293 c4 -7 2 -13 -3 -13 -6 0 -11 -4 -11 -10 0 -5 9 -10 20 -10
24 0 26 13 3 31 -11 10 -14 10 -9 2z"/>
<path d="M1712 280 c-16 -26 -17 -25 18 -27 17 -1 30 2 30 8 0 6 -5 7 -10 4
-6 -3 -14 3 -18 14 -7 21 -7 21 -20 1z"/>
<path d="M1811 277 c-12 -15 -5 -27 17 -27 8 0 12 6 8 15 -8 21 21 19 33 -2 6
-10 11 -13 11 -7 1 30 -49 45 -69 21z"/>
<path d="M780 273 c0 -5 10 -19 21 -33 l20 -25 -16 33 c-15 30 -25 41 -25 25z"/>
<path d="M1108 273 c7 -3 16 -2 19 1 4 3 -2 6 -13 5 -11 0 -14 -3 -6 -6z"/>
<path d="M1286 271 c-3 -5 1 -14 8 -20 16 -13 32 2 21 19 -8 12 -22 13 -29 1z"/>
<path d="M1369 270 c-19 -11 -18 -52 1 -58 9 -3 11 1 6 13 -3 10 -1 24 5 32
15 17 9 24 -12 13z"/>
<path d="M1525 270 c-3 -5 -2 -10 4 -10 5 0 13 5 16 10 3 6 2 10 -4 10 -5 0
-13 -4 -16 -10z"/>
<path d="M973 250 c-1 -12 4 -20 13 -20 9 0 14 7 12 17 -4 24 -23 27 -25 3z"/>
<path d="M919 243 c-13 -16 -12 -17 4 -4 16 13 21 21 13 21 -2 0 -10 -8 -17
-17z"/>
<path d="M1136 242 c-7 -13 10 -26 23 -18 14 9 39 -4 45 -22 2 -10 4 -6 3 8
-2 20 -7 25 -27 25 -14 0 -28 4 -31 9 -4 4 -9 3 -13 -2z"/>
<path d="M1320 235 c-10 -12 -10 -15 3 -15 19 0 31 16 18 24 -5 3 -14 -1 -21
-9z"/>
<path d="M1025 230 c-8 -14 3 -30 21 -30 12 0 12 -4 4 -21 -9 -15 -8 -24 1
-35 13 -16 49 -19 49 -4 0 6 -6 10 -14 10 -21 0 -30 19 -16 35 10 12 7 17 -15
25 -14 5 -23 14 -20 20 3 5 4 10 1 10 -3 0 -8 -4 -11 -10z"/>
<path d="M1080 233 c0 -7 9 -22 20 -33 12 -12 17 -26 13 -36 -4 -11 -3 -15 5
-10 6 3 16 -2 21 -13 8 -14 8 -20 -1 -23 -13 -5 -4 -38 11 -38 6 0 8 7 4 17
-5 13 -1 15 24 10 l30 -6 -20 40 c-14 29 -22 37 -28 27 -6 -9 -13 -2 -24 25
-8 20 -18 37 -21 37 -3 0 -2 -4 1 -10 3 -5 2 -10 -4 -10 -5 0 -15 8 -20 18 -6
9 -11 11 -11 5z"/>
<path d="M1866 223 c-6 -14 -5 -15 5 -6 7 7 10 15 7 18 -3 3 -9 -2 -12 -12z"/>
<path d="M1930 230 c-9 -6 -9 -9 1 -13 10 -4 8 -6 -4 -6 -10 -1 -16 -5 -12
-10 6 -11 65 6 65 19 0 11 -36 19 -50 10z"/>
<path d="M1584 218 c-4 -6 -3 -8 4 -4 6 3 13 2 17 -4 7 -12 25 -4 25 11 0 13
-37 11 -46 -3z"/>
<path d="M1686 200 c-3 -18 -15 -46 -27 -63 l-21 -32 26 30 c24 28 43 81 33
91 -2 3 -7 -9 -11 -26z"/>
<path d="M1720 223 c0 -19 43 -61 70 -67 19 -4 17 -2 -7 9 -18 8 -39 27 -47
42 -8 16 -15 23 -16 16z"/>
<path d="M825 200 c-3 -5 1 -10 10 -10 9 0 13 5 10 10 -3 6 -8 10 -10 10 -2 0
-7 -4 -10 -10z"/>
<path d="M927 193 c-13 -12 -7 -22 23 -37 24 -12 30 -12 30 -1 0 15 -26 45
-39 45 -4 0 -11 -3 -14 -7z"/>
<path d="M1410 191 c0 -6 5 -13 10 -16 6 -3 10 1 10 9 0 9 -4 16 -10 16 -5 0
-10 -4 -10 -9z"/>
<path d="M1580 191 c0 -10 29 -36 34 -30 1 2 -6 12 -16 22 -10 9 -18 13 -18 8z"/>
<path d="M1262 146 c7 -8 15 -12 17 -11 5 6 -10 25 -20 25 -5 0 -4 -6 3 -14z"/>
<path d="M1314 128 l-29 -32 34 28 c20 16 42 25 53 23 10 -3 18 -1 18 4 0 21
-48 7 -76 -23z"/>
<path d="M1610 139 c-22 -18 -22 -19 -3 -10 12 6 25 16 28 21 9 15 3 12 -25
-11z"/>
<path d="M1835 150 c4 -6 11 -8 16 -5 14 9 11 15 -7 15 -8 0 -12 -5 -9 -10z"/>
</g>
</svg>
